<?xml version="1.0" encoding="UTF-8"?>
<svg xmlns="http://www.w3.org/2000/svg" version="1.1" viewBox="0 0 400 124">
  <defs>
    <style>
      .cls-1 {
        stroke-width: 1.4px;
      }

      .cls-1, .cls-2 {
        fill: none;
        stroke: #1d1d1b;
        stroke-miterlimit: 10;
      }

      .cls-2 {
        stroke-width: 1.4px;
      }

      .cls-3, .cls-4 {
        stroke-width: 0px;
      }

      .cls-3, .cls-5, .cls-6 {
        fill: #1d1d1b;
      }

      .cls-4 {
        fill: #000;
      }

      .cls-5 {
        font-size: 17.3px;
      }

      .cls-5, .cls-6 {
        font-family: ArialMT, Arial;
      }

      .cls-6 {
        font-size: 17.2px;
      }
    </style>
  </defs>
  <g id="Layer_1" data-name="Layer 1">
    <g>
      <path class="cls-4" d="M80.5,88.5c2.1-3,3.4-6.8,3.4-11.9s-1.3-8.9-3.4-11.9c-2.1-3-5.1-4.2-8.9-4.2s-6.8,1.3-8.9,4.2c-2.1,3-3.4,6.8-3.4,11.9s1.3,8.9,3.4,11.9c2.1,3,5.1,4.2,8.9,4.2,3.8,0,6.8-1.7,8.9-4.2M86.4,95.3c-3.4,3.4-8.5,5.5-14.9,5.5s-11.5-1.7-14.9-5.5c-4.7-4.2-6.8-10.6-6.8-18.7s2.1-14.4,6.8-18.7c3.4-3.4,8.5-5.5,14.9-5.5s11.5,1.7,14.9,5.5c4.7,4.2,6.8,10.6,6.8,18.7s-2.1,14.4-6.8,18.7"/>
      <path class="cls-4" d="M113.6,53.2h1.7v7.2h-2.6c-1.3,0-2.1.4-2.6.9-.4.4-.9,1.3-.9,1.7v3h5.9v6.4h-5.9v27.2h-8.9v-27.2h-4.2v-6.4h4.7v-2.1c0-3.4.4-5.9,1.7-7.6,1.3-2.1,4.2-3,9.3-3,.9,0,1.3,0,1.7,0"/>
      <path class="cls-4" d="M134.9,53.2h1.7v7.2h-2.6c-1.3,0-2.1.4-2.5.9-.4.4-.8,1.3-.8,1.7v3h5.9v6.4h-5.9v27.2h-8.9v-27.2h-4.2v-6.4h4.7v-2.1c0-3.4.4-5.9,1.7-7.6,1.3-2.1,4.2-3,9.3-3,.4,0,1.3,0,1.7,0"/>
      <rect class="cls-4" x="139.1" y="77.4" width="17.4" height="8.5"/>
      <polygon class="cls-4" points="169.7 53.6 175.6 80 176.9 87.2 178.2 80 183.7 53.6 193.5 53.6 199 80 200.3 87.2 201.6 80 207.9 53.6 217.7 53.6 204.5 99.1 195.6 99.1 190.1 72.7 188.4 63.8 186.7 72.7 181.6 99.1 172.7 99.1 159.5 53.6 169.7 53.6"/>
      <path class="cls-4" d="M246.6,66c1.7.8,3,1.7,4.2,3.4.9,1.3,1.3,2.6,1.7,3.8,0,1.3.4,3.4.4,6.4v20h-8.9v-20.4c0-1.7-.4-3.4-.8-4.2-.8-1.7-2.1-2.6-4.7-2.6s-4.2.9-5.1,2.1c-1.3,1.7-1.7,3.8-1.7,6.8v18.3h-8.9v-45.5h8.9v16.1c1.3-2.1,2.5-3.4,4.2-4.2,1.7-.9,3.4-1.3,5.1-1.3,2.1,0,3.8.4,5.5,1.3"/>
      <path class="cls-4" d="M261.1,65.5h8.9v33.6h-8.9v-33.6ZM270,61.7h-8.9v-8.1h8.9v8.1Z"/>
      <path class="cls-4" d="M275.1,72.3v-6.4h4.7v-9.3h8.5v9.3h5.5v6.4h-5.5v17.8c0,1.3,0,2.1.4,2.5.4.4,1.3.4,3.4.4h1.7v6.4h-4.2c-4.2,0-6.8-.4-8.5-2.1-.8-.9-1.3-2.6-1.3-4.7v-20.8l-4.7.4h0Z"/>
      <path class="cls-4" d="M308.6,74c-1.3,1.3-2.1,3-2.5,5.1h15.3c0-2.1-.9-4.2-2.5-5.5-1.3-1.3-3-1.7-5.1-1.7s-3.8.8-5.1,2.1M321.8,66.4c2.6.8,4.2,2.5,6,5.1,1.3,2.1,2.1,4.2,2.5,6.8.4,1.7.4,3.8.4,6.8h-24.6c0,3.4,1.3,5.9,3.4,7.2,1.3.8,3,1.3,4.7,1.3s3.8-.4,4.7-1.7c.8-.4,1.3-1.3,1.7-2.1h8.9c-.4,2.1-1.3,3.8-3.4,5.9-3,3.4-7.2,5.1-12.7,5.1s-8.5-1.3-11.9-4.2c-3.4-2.6-5.1-7.2-5.1-13.6s1.7-10.2,4.7-13.6c3-3,7.2-4.7,11.9-4.7,3.8,0,6.4.4,8.9,1.7"/>
      <polygon class="cls-4" points="350.3 42.2 350.3 46.4 343.1 46.4 343.1 66.8 338 66.8 338 46.4 330.3 46.4 330.3 42.2 350.3 42.2"/>
      <path class="cls-4" d="M369.8,42.2h7.7v24.6h-5.1v-20.8l-4.7,20.8h-5.1l-4.7-20.8v20.8h-4.7v-24.6h7.6l4.7,19.5,4.2-19.5Z"/>
    </g>
  </g>
  <g id="Dimensions">
    <g id="Manual_Dimension" data-name="Manual Dimension">
      <text class="cls-6" transform="translate(23.3 102.8) rotate(-90)"><tspan x="0" y="0" xml:space="preserve"> 42 px </tspan></text>
      <g>
        <line class="cls-1" x1="37.7" y1="100.9" x2="37.7" y2="52.9"/>
        <path class="cls-3" d="M37.7,99.6l-2.6-1.6h0c0,0,1.7,4.3,1.7,4.3.3,1.5.6,2.9,1,4.4.3-1.5.6-2.9,1-4.4l1.7-4.2h0c0,0-2.6,1.5-2.6,1.5Z"/>
        <path class="cls-3" d="M37.7,54.2l-2.6,1.6h0c0,0,1.7-4.3,1.7-4.3.3-1.5.6-2.9,1-4.4.3,1.5.6,2.9,1,4.4l1.7,4.2h0c0,0-2.6-1.5-2.6-1.5Z"/>
      </g>
    </g>
    <g id="Manual_Dimension-2" data-name="Manual Dimension">
      <text class="cls-5" transform="translate(177.7 19.2)"><tspan x="0" y="0" xml:space="preserve"> 234 px </tspan></text>
      <g>
        <line class="cls-2" x1="45.4" y1="33.6" x2="371.6" y2="33.6"/>
        <path class="cls-3" d="M46.7,33.6l1.6-2.6h0c0,0-4.2,1.6-4.2,1.6-1.5.3-3,.7-4.4,1,1.5.3,3,.7,4.4,1l4.2,1.7h0s-1.6-2.7-1.6-2.7Z"/>
        <path class="cls-3" d="M370.3,33.6l-1.6-2.6h0c0,0,4.2,1.6,4.2,1.6,1.5.3,3,.7,4.4,1-1.5.3-3,.7-4.4,1l-4.2,1.7h0s1.6-2.7,1.6-2.7Z"/>
      </g>
    </g>
  </g>
</svg>